<?xml version="1.0" standalone="no"?>
<!DOCTYPE svg PUBLIC "-//W3C//DTD SVG 20010904//EN"
 "http://www.w3.org/TR/2001/REC-SVG-20010904/DTD/svg10.dtd">
<svg version="1.0" xmlns="http://www.w3.org/2000/svg"
 width="225.000000pt" height="225.000000pt" viewBox="0 0 225.000000 225.000000"
 preserveAspectRatio="xMidYMid meet">

<g transform="translate(0.000000,225.000000) scale(0.100000,-0.100000)"
fill="#000000" stroke="none">
<path d="M988 2170 c-218 -35 -399 -124 -558 -277 -271 -258 -373 -645 -266
-1013 l23 -79 -36 -3 c-24 -2 -36 -8 -36 -18 0 -13 47 -15 351 -18 333 -2 352
-3 369 -22 23 -26 13 -68 -21 -80 -14 -6 -63 -10 -109 -10 -74 0 -87 -3 -105
-22 -11 -12 -20 -34 -20 -49 0 -79 27 -89 243 -89 155 0 176 -2 190 -18 14
-15 17 -49 19 -208 3 -160 5 -189 18 -189 10 0 16 13 18 41 l3 41 104 7 c310
20 581 163 758 401 224 300 265 694 108 1031 -136 289 -392 492 -706 560 -86
19 -270 26 -347 14z m327 -59 c376 -78 664 -358 751 -731 29 -124 22 -358 -15
-475 -7 -24 -9 -14 -10 53 l-1 83 -122 162 c-66 89 -125 168 -131 175 -6 8 -5
12 5 12 7 0 69 -74 137 -165 68 -91 128 -168 133 -171 19 -12 -11 31 -129 186
l-119 155 -104 3 -105 3 -56 -62 -56 -62 -179 236 -179 237 -206 0 -207 0
-273 -327 -274 -327 -3 86 c-5 155 47 340 140 495 39 66 166 204 240 261 210
161 502 227 763 173z m-262 -721 l247 -339 0 -416 0 -415 -35 0 -35 0 0 416 0
416 -235 333 c-129 183 -235 336 -235 339 0 3 10 6 23 6 17 0 72 -70 270 -340z
m80 0 l247 -340 0 -405 c0 -239 -4 -405 -9 -405 -5 0 -16 -3 -25 -6 -14 -6
-16 34 -16 404 l0 410 -245 335 c-135 185 -245 338 -245 341 0 3 10 6 23 6 17
-1 73 -70 270 -340z m90 -6 l257 -345 -2 -381 -3 -382 -32 -13 -33 -13 0 399
0 399 -245 335 c-135 185 -245 338 -245 341 0 3 10 6 23 6 17 -1 76 -74 280
-346z m80 0 l257 -345 0 -365 0 -364 -26 -10 c-14 -6 -27 -10 -30 -10 -2 0 -4
171 -4 380 l0 379 -250 336 c-137 184 -250 337 -250 340 0 3 10 5 23 5 17 -1
76 -73 280 -346z m81 0 l259 -344 -5 -342 -6 -341 -23 -18 -24 -18 -3 365 -2
364 -250 335 c-138 185 -250 338 -250 340 0 3 10 5 23 4 17 0 78 -74 281 -345z
m-398 -26 l224 -317 0 -415 0 -416 -69 0 -69 0 -4 130 c-3 126 -4 130 -31 157
l-27 28 -191 3 -190 3 -11 25 c-9 19 -8 28 7 44 16 17 31 20 112 20 86 0 96 2
118 25 35 34 34 93 -1 126 l-26 24 -293 3 -293 3 -17 42 c-9 23 -25 80 -35
127 l-19 84 47 57 c26 31 151 181 277 333 l230 275 18 -22 c11 -12 120 -164
243 -339z m787 -148 l127 -173 0 -222 c0 -209 -1 -223 -20 -240 -20 -18 -20
-17 -20 225 l0 242 -120 170 c-66 93 -120 171 -120 174 0 23 43 -26 153 -176z
m40 3 l127 -175 0 -192 c0 -154 -3 -196 -15 -212 -13 -17 -14 5 -15 195 l0
213 -118 162 c-140 190 -137 186 -120 186 7 -1 70 -80 141 -177z m45 -2 l132
-178 0 -144 c-1 -123 -4 -149 -20 -179 l-19 -35 -1 184 0 184 -118 161 c-140
192 -137 186 -120 186 7 -1 73 -81 146 -179z m41 -1 l130 -175 0 -105 c0 -73
-4 -113 -14 -130 -13 -23 -14 -12 -15 108 l0 133 -122 162 c-66 89 -126 168
-132 176 -8 10 -7 12 6 10 9 -2 75 -83 147 -179z m-170 -2 l121 -172 0 -252 0
-252 -63 -59 c-35 -33 -78 -70 -95 -82 l-32 -22 0 344 0 344 -79 103 -80 104
47 57 c26 32 50 58 54 58 3 1 61 -76 127 -171z"/>
<path d="M650 1065 l0 -165 95 0 95 0 0 165 0 165 -95 0 -95 0 0 -165z"/>
</g>
</svg>
